<svg width="45" height="38" viewBox="0 0 45 38" fill="none" xmlns="http://www.w3.org/2000/svg">
<path id="Vector (Stroke)" fill-rule="evenodd" clip-rule="evenodd" d="M44.589 4.6687C44.6383 4.64654 44.6875 4.62415 44.7366 4.60154C43.8168 6.03129 42.7188 7.32344 41.4743 8.4474C41.0516 8.82921 40.6119 9.1916 40.1566 9.53339C40.1839 9.94249 40.1839 10.3516 40.1839 10.7645C40.1839 22.6756 31.9074 36.3156 16.6981 37.7331C16.0554 37.793 15.4004 37.8311 14.7331 37.8463C14.513 37.8513 14.2916 37.8538 14.0689 37.8538V37.8463C14.0436 37.8463 14.0184 37.8463 13.9931 37.8463C10.911 37.8416 7.86955 37.2682 5.00619 36.1679C4.04343 35.7979 3.1008 35.3683 2.18353 34.8808L2.18161 34.8798C1.43675 34.4838 0.708615 34.0496 0 33.5781C0.725164 33.6685 1.45396 33.7138 2.18458 33.7157C3.23803 33.7166 4.2838 33.6239 5.31121 33.4413C7.05254 33.1318 8.74113 32.5642 10.325 31.7571C11.4728 31.1722 12.5656 30.4615 13.5836 29.6322C12.3627 29.6082 11.1884 29.3349 10.1137 28.8531C8.65215 28.198 7.37468 27.1573 6.41406 25.8337C6.07246 25.363 5.77093 24.8566 5.51543 24.3189C5.31825 23.904 5.14849 23.4705 5.0089 23.0206C5.95221 23.2093 6.91517 23.242 7.86263 23.1206C8.29704 23.0649 8.72819 22.9769 9.15269 22.8566C8.6019 22.7411 8.07098 22.576 7.56393 22.3661C7.49742 22.3386 7.43131 22.3103 7.36563 22.2813C6.65461 21.9668 5.99281 21.5636 5.39166 21.0861C5.12307 20.8728 4.86659 20.6446 4.62325 20.403C3.552 19.339 2.73521 18.0129 2.26 16.5347C2.02726 15.8107 1.87646 15.0502 1.81784 14.2662C1.79951 14.0211 1.79019 13.7738 1.79019 13.5245V13.4038C1.86158 13.4451 1.93346 13.4853 2.00578 13.5245C2.78529 13.9468 3.61787 14.2491 4.47723 14.4235C4.96311 14.5222 5.45755 14.5799 5.95579 14.5953C4.69016 13.7179 3.69929 12.5678 3.01064 11.268C2.96199 11.1762 2.91485 11.0836 2.86923 10.9903C1.93423 9.07883 1.63677 6.87193 2.0602 4.74324C2.25559 3.76093 2.6045 2.79527 3.11511 1.88299C3.70868 2.64062 4.3382 3.36042 5.00012 4.04052C8.88771 8.03485 13.8933 10.6598 19.3008 11.538C20.2009 11.6842 21.1121 11.782 22.0312 11.8296C21.8332 10.9446 21.7606 10.0482 21.8061 9.16541C21.9308 6.74975 22.9402 4.43562 24.6865 2.73324C28.3832 -0.871384 34.1972 -0.686628 37.6722 3.14611C38.2877 3.02023 38.8955 2.86188 39.4935 2.67204C40.8926 2.2279 42.2377 1.61138 43.5007 0.83478C43.3132 1.43792 43.0696 2.01622 42.7754 2.56247C42.2875 3.46832 41.6605 4.28606 40.9193 4.98292C40.4742 5.40133 39.988 5.77616 39.466 6.10032C39.7231 6.06888 39.9794 6.03179 40.2347 5.98909C41.7327 5.73858 43.1959 5.29523 44.589 4.6687Z" fill="white"/>
</svg>
